<?xml version="1.0" encoding="utf-8"?>
<svg viewBox="0 0 146.667 344.002" xmlns="http://www.w3.org/2000/svg">
  <defs>
    <style>.a{fill:#088ecf;}.b{fill:#53bfef;}.c{fill:rgba(176,222,243,0.11);stroke:#088ecf;stroke-width:3px;}</style>
  </defs>
  <path d="M 0.023 0.395 L 146.683 0.413 L 146.91 343.999 L 146.665 185.088 L 146.681 0.414 L 35.551 0.401 L 0.018 0.394 L 0 184.634 C 0 183.808 0.018 182.956 0.036 182.121 C 0.181 176.057 0.918 170.02 2.236 164.098 C 3.133 160.236 3.88 156.489 4.6 152.867 C 6.2 144.822 7.72 137.222 10.768 128.859 L 10.786 128.806 L 10.83 128.718 C 12.371 125.244 14.11 121.861 16.039 118.588 C 18.039 115.329 18.55 111.601 19.039 107.987 C 19.293 105.477 19.806 103 20.568 100.596 C 21.162 98.164 22.067 95.818 23.26 93.617 C 24.486 91.156 25.352 88.533 25.829 85.826 C 26.506 82.105 27.757 78.51 29.536 75.172 C 30.421 73.588 31.533 72.14 32.836 70.876 C 34.179 69.584 35.749 68.547 37.466 67.822 L 37.502 67.804 C 41.611 66.203 45.597 64.308 49.431 62.131 C 54.816 58.978 57.843 56.011 58.443 53.315 C 58.961 50.404 58.994 47.429 58.543 44.507 C 58.516 44.418 58.49 44.331 58.463 44.231 C 58.33 43.717 58.17 43.13 56.73 42.26 C 54.861 40.847 54.363 38.379 53.83 35.76 C 53.401 33.649 53.223 32.36 54.53 30.496 C 54.859 30.059 54.949 29.486 54.77 28.969 L 54.77 28.916 C 54.273 25.473 54.433 21.966 55.241 18.582 C 55.952 15.524 57.385 12.682 59.419 10.291 C 66.358 2.831 78.179 2.831 85.117 10.291 C 87.154 12.682 88.59 15.524 89.304 18.582 C 90.106 21.967 90.262 25.473 89.766 28.916 L 89.757 28.969 C 89.586 29.485 89.679 30.052 90.006 30.488 C 90.679 31.455 91.379 32.449 90.779 35.37 C 90.741 35.548 90.706 35.717 90.679 35.886 C 90.217 38.203 89.692 40.83 87.808 42.25 C 86.119 42.952 86.101 43.202 86.039 44.01 C 86.03 44.154 86.013 44.323 85.986 44.509 C 85.585 47.404 85.684 50.347 86.279 53.21 C 86.88 55.475 88.315 57.431 90.297 58.687 C 92.367 60.039 94.568 61.181 96.865 62.096 C 97.985 62.593 99.042 63.053 100.029 63.552 C 101.353 64.218 102.693 64.822 103.993 65.408 C 109.202 67.761 114.134 69.98 117.21 75.753 C 118.935 79.191 120.134 82.87 120.766 86.664 C 121.211 89.305 122.145 91.84 123.522 94.139 C 124.901 96.578 125.989 99.171 126.765 101.864 C 127.522 104.588 128.01 107.381 128.223 110.2 L 128.223 110.21 C 128.472 113.112 128.703 115.855 130.383 118.581 C 132.312 121.855 134.051 125.238 135.592 128.712 L 135.628 128.801 L 135.646 128.845 C 138.384 136.26 140.399 143.922 141.663 151.724 C 142.15 154.343 142.663 156.865 143.163 159.316 C 144.701 166.8 146.15 173.876 146.372 182.124 C 146.407 183.11 146.425 184.1 146.425 185.099 L 146.427 185.099 C 146.423 189.954 145.992 194.799 145.138 199.579 C 144.894 201.101 144.187 202.512 143.111 203.618 C 142.277 204.464 141.144 204.948 139.956 204.967 C 138.765 204.961 137.637 204.433 136.872 203.52 C 135.574 202.029 135.085 199.625 135.485 196.729 L 135.538 196.347 C 135.956 193.384 136.374 190.322 136.516 187.258 C 136.634 186.29 136.637 185.312 136.525 184.344 C 136.516 184.336 136.507 184.326 136.498 184.326 C 136.427 184.326 136.312 184.539 136.134 184.859 C 135.825 185.464 135.446 186.03 135.005 186.547 C 134.45 187.191 133.736 187.682 132.934 187.967 C 132.813 188.01 132.688 188.044 132.561 188.067 C 130.927 188.373 129.352 187.301 129.041 185.67 C 128.112 182.793 129.228 179.837 130.312 176.968 C 130.827 175.703 131.249 174.4 131.574 173.073 C 132.323 169.664 131.334 167.276 129.823 163.653 C 129.307 162.437 127.867 159.17 126.907 157.226 C 125.832 155.014 124.677 152.803 123.557 150.654 C 121.147 146.219 118.969 141.661 117.033 136.999 C 116.178 134.903 115.489 132.741 114.971 130.537 C 114.121 127.433 112.997 124.411 111.611 121.507 C 110.687 119.376 109.834 117.263 109.034 115.275 C 108.829 114.75 108.66 114.315 108.518 113.933 C 108.162 113.001 107.967 112.478 107.798 112.478 C 107.603 112.478 107.443 113.099 107.087 114.466 C 107.016 114.741 106.936 115.052 106.847 115.389 C 106.182 117.898 105.654 120.441 105.265 123.007 C 104.544 127.432 104.439 131.937 104.954 136.391 C 105.475 140.156 105.436 143.976 104.838 147.729 L 104.838 147.756 C 104.696 148.936 104.553 150.144 104.42 151.601 C 104.342 153.026 104.578 154.45 105.113 155.773 C 105.308 156.35 105.504 156.945 105.664 157.602 C 106.037 159.218 106.26 160.864 106.331 162.521 C 106.784 167.536 107.518 172.521 108.531 177.454 L 108.62 177.924 C 109.144 180.748 109.695 183.678 110.131 186.564 C 111.072 193.195 111.66 199.873 111.89 206.567 C 112.147 211.612 112.016 216.671 111.499 221.696 C 110.611 228.619 110.277 235.603 110.5 242.578 C 110.749 246.791 111.334 250.976 112.25 255.097 C 113.653 261.81 114.483 268.628 114.73 275.482 C 114.863 282.328 114.482 289.174 113.592 295.964 C 112.65 303.805 111.77 311.2 113.032 319.022 C 113.525 321.655 114.755 324.092 116.579 326.054 C 118.447 328.106 120.533 329.948 122.801 331.548 C 124.077 332.38 125.048 333.604 125.565 335.037 C 125.962 336.238 125.764 337.557 125.032 338.588 C 123.884 339.838 122.223 340.487 120.532 340.347 C 120.205 340.347 119.879 340.329 119.554 340.293 C 118.532 340.347 116.736 340.586 115.785 340.737 L 115.776 340.737 C 114.691 340.944 113.591 341.063 112.487 341.093 C 110.466 341.087 108.516 340.345 107.004 339.006 C 106.142 338.465 105.151 338.164 104.133 338.136 C 100.977 337.736 98.248 337.399 98.657 330.927 C 98.841 327.926 98.856 324.918 98.701 321.915 C 98.363 314.74 97.261 304.656 95.591 298.298 C 93.182 289.136 91.938 282.947 91.422 277.594 C 91.019 272.685 91.043 267.752 91.494 262.849 C 91.459 258.943 90.125 256.315 88.712 253.527 C 88.037 252.24 87.423 250.918 86.872 249.56 C 85.545 245.92 84.697 242.123 84.348 238.265 C 84.153 236.702 83.937 235.086 83.637 233.355 C 82.633 227.61 80.572 222.195 78.394 216.46 L 78.385 216.442 C 76.874 212.455 75.309 208.326 74.065 203.975 C 73.841 203.212 73.681 202.591 73.565 202.138 C 73.388 201.419 73.289 201.064 73.201 201.064 C 73.113 201.064 73.024 201.426 72.837 202.146 C 72.721 202.598 72.57 203.21 72.357 203.966 C 71.113 208.315 69.548 212.436 68.037 216.422 L 68.028 216.45 L 68.019 216.468 C 65.833 222.204 63.784 227.619 62.784 233.354 C 62.502 234.952 62.284 236.522 62.084 238.048 C 61.71 241.974 60.857 245.838 59.542 249.555 C 59.009 250.876 58.408 252.168 57.742 253.427 C 57.208 254.465 56.657 255.539 56.186 256.676 C 55.352 258.626 54.923 260.726 54.924 262.846 C 55.381 267.754 55.407 272.693 55 277.606 C 54.349 283.106 53.295 288.551 51.845 293.896 C 50.338 299.98 48.805 306.266 48.538 312.729 L 48.538 312.809 L 48.529 312.889 C 47.713 318.868 47.46 324.911 47.773 330.938 C 48.173 337.411 45.453 337.749 42.297 338.148 C 41.28 338.171 40.288 338.468 39.426 339.01 C 37.915 340.352 35.965 341.098 33.943 341.106 C 32.835 341.069 31.732 340.948 30.643 340.743 C 30.216 340.667 29.705 340.614 29.105 340.543 C 26.482 340.242 22.51 339.789 21.159 337.773 C 20.65 336.953 20.54 335.949 20.859 335.039 C 21.382 333.607 22.355 332.384 23.631 331.55 C 25.789 330.05 27.79 328.337 29.604 326.435 C 31.535 324.367 32.847 321.799 33.391 319.022 C 34.653 311.209 33.773 303.805 32.84 295.964 C 31.941 289.175 31.561 282.329 31.702 275.482 C 31.942 268.625 32.769 261.803 34.173 255.088 C 35.09 250.972 35.675 246.788 35.924 242.578 C 36.142 235.605 35.807 228.623 34.924 221.704 C 33.804 211.607 34.735 201.548 35.635 191.809 C 36.062 187.248 36.942 182.506 37.803 177.925 L 37.803 177.898 C 38.627 173.486 39.483 168.923 39.927 164.572 C 39.998 163.925 40.052 163.316 40.105 162.717 C 40.228 160.25 40.667 157.808 41.412 155.454 C 41.912 154.234 42.118 152.914 42.012 151.601 C 41.878 150.117 41.727 148.857 41.594 147.738 C 40.991 143.986 40.952 140.164 41.478 136.401 C 41.987 131.987 41.894 127.524 41.202 123.136 C 40.823 120.575 40.31 118.035 39.664 115.527 C 39.588 115.26 39.517 115.012 39.464 114.772 L 39.455 114.736 C 39.055 113.173 38.868 112.463 38.655 112.463 C 38.469 112.463 38.264 113.022 37.882 114.034 C 37.731 114.453 37.535 114.966 37.305 115.552 C 36.46 117.656 35.652 119.61 34.816 121.509 C 33.431 124.412 32.309 127.434 31.465 130.539 C 30.14 136.363 27.331 142.098 24.318 147.958 L 23.145 150.222 L 23.127 150.258 C 21.457 153.499 19.723 156.846 18.15 160.202 L 17.821 160.913 L 17.812 160.931 C 16.725 163.116 15.804 165.381 15.056 167.705 C 14.206 170.271 14.397 173.069 15.589 175.495 C 18.114 181.359 17.794 184.395 17.376 185.683 C 17.053 187.064 15.852 188.064 14.434 188.134 C 14.112 188.128 13.792 188.077 13.483 187.983 C 12.649 187.7 11.914 187.181 11.367 186.492 C 11.154 186.244 10.976 186.012 10.82 185.821 C 10.429 185.33 10.189 185.031 10.056 185.031 C 10.033 185.031 10.01 185.04 9.994 185.057 C 9.878 185.177 9.878 185.701 9.905 186.856 C 9.923 187.513 9.95 188.135 9.994 188.747 C 10.145 190.945 10.483 193.441 10.945 196.737 C 11.345 199.623 10.845 202.038 9.545 203.53 C 8.778 204.438 7.652 204.966 6.462 204.977 C 5.276 204.956 4.146 204.471 3.315 203.627 C 2.237 202.518 1.53 201.105 1.288 199.579 C 0.437 194.881 0.009 190.118 0.008 185.344 L -0.001 343.98 L 0.004 343.989 L 0.023 0.395 Z" style="fill: rgb(78, 150, 211);"/>
</svg>