<?xml version="1.0" encoding="utf-8"?>
<svg viewBox="0 0 146.667 344.002" xmlns="http://www.w3.org/2000/svg">
  <defs>
    <style>.a{fill:#088ecf;}.b{fill:#53bfef;}.c{fill:rgba(176,222,243,0.11);stroke:#088ecf;stroke-width:3px;}</style>
  </defs>
  <g transform="matrix(1, 0, 0, 1, -167.580002, -218.639999)">
    <path d="M 167.17 218.554 L 314.49 218.554 L 314.49 562.639 L 314.247 562.639 L 314.247 403.536 L 314.245 403.536 L 314.245 218.64 L 167.58 218.64 L 167.58 403.081 C 167.58 402.254 167.598 401.401 167.616 400.565 C 167.761 394.493 168.498 388.449 169.816 382.52 C 170.713 378.654 171.46 374.902 172.18 371.275 C 173.78 363.221 175.3 355.612 178.348 347.239 L 178.366 347.186 L 178.41 347.097 C 179.951 343.619 181.69 340.232 183.619 336.954 C 185.619 333.692 186.13 329.959 186.619 326.341 C 186.873 323.828 187.386 321.348 188.148 318.941 C 188.742 316.506 189.647 314.157 190.84 311.953 C 192.066 309.49 192.932 306.863 193.409 304.153 C 194.086 300.427 195.337 296.829 197.116 293.486 C 198.001 291.9 199.113 290.451 200.416 289.185 C 201.759 287.891 203.329 286.854 205.046 286.127 L 205.082 286.109 C 209.191 284.507 213.177 282.609 217.011 280.429 C 222.396 277.273 225.423 274.302 226.023 271.602 C 226.541 268.688 226.574 265.709 226.123 262.784 C 226.096 262.695 226.07 262.608 226.043 262.508 C 225.91 261.993 225.75 261.405 224.31 260.534 C 222.441 259.12 221.943 256.649 221.41 254.027 C 220.981 251.912 220.803 250.623 222.11 248.756 C 222.439 248.318 222.529 247.745 222.35 247.227 L 222.35 247.174 C 221.853 243.726 222.013 240.215 222.821 236.827 C 223.532 233.766 224.965 230.92 226.999 228.526 C 233.938 221.058 245.759 221.058 252.697 228.526 C 254.734 230.92 256.17 233.766 256.884 236.827 C 257.686 240.216 257.842 243.726 257.346 247.174 L 257.337 247.227 C 257.166 247.744 257.259 248.312 257.586 248.747 C 258.259 249.716 258.959 250.711 258.359 253.636 C 258.321 253.814 258.286 253.983 258.259 254.152 C 257.797 256.472 257.272 259.103 255.388 260.525 C 253.699 261.227 253.681 261.477 253.619 262.286 C 253.61 262.43 253.593 262.599 253.566 262.786 C 253.165 265.685 253.264 268.631 253.859 271.497 C 254.46 273.766 255.895 275.724 257.877 276.981 C 259.947 278.335 262.148 279.478 264.445 280.394 C 265.565 280.892 266.622 281.352 267.609 281.852 C 268.933 282.519 270.273 283.123 271.573 283.71 C 276.782 286.066 281.714 288.288 284.79 294.067 C 286.515 297.51 287.714 301.193 288.346 304.992 C 288.791 307.637 289.725 310.175 291.102 312.476 C 292.481 314.919 293.569 317.514 294.345 320.21 C 295.102 322.938 295.59 325.734 295.803 328.557 L 295.803 328.566 C 296.052 331.472 296.283 334.219 297.963 336.948 C 299.892 340.226 301.631 343.613 303.172 347.091 L 303.208 347.18 L 303.226 347.224 C 305.964 354.648 307.979 362.32 309.243 370.131 C 309.73 372.753 310.243 375.278 310.743 377.732 C 312.281 385.226 313.73 392.31 313.952 400.568 C 313.987 401.555 314.005 402.546 314.005 403.546 L 314.007 403.546 C 314.003 408.408 313.572 413.258 312.718 418.044 C 312.474 419.568 311.767 420.981 310.691 422.088 C 309.857 422.935 308.724 423.42 307.536 423.439 C 306.345 423.433 305.217 422.903 304.452 421.99 C 303.154 420.497 302.665 418.09 303.065 415.19 L 303.118 414.808 C 303.536 411.841 303.954 408.775 304.096 405.708 C 304.214 404.739 304.217 403.76 304.105 402.791 C 304.096 402.782 304.087 402.773 304.078 402.773 C 304.007 402.773 303.892 402.986 303.714 403.306 C 303.405 403.912 303.026 404.479 302.585 404.996 C 302.03 405.641 301.316 406.132 300.514 406.418 C 300.393 406.461 300.268 406.495 300.141 406.518 C 298.507 406.825 296.932 405.751 296.621 404.118 C 295.692 401.237 296.808 398.277 297.892 395.406 C 298.407 394.139 298.829 392.835 299.154 391.506 C 299.903 388.093 298.914 385.702 297.403 382.075 C 296.887 380.857 295.447 377.586 294.487 375.639 C 293.412 373.425 292.257 371.211 291.137 369.06 C 288.727 364.619 286.549 360.056 284.613 355.389 C 283.758 353.289 283.069 351.125 282.551 348.918 C 281.701 345.811 280.577 342.785 279.191 339.877 C 278.267 337.744 277.414 335.628 276.614 333.637 C 276.409 333.113 276.24 332.677 276.098 332.295 C 275.742 331.361 275.547 330.837 275.378 330.837 C 275.183 330.837 275.023 331.459 274.667 332.828 C 274.596 333.103 274.516 333.414 274.427 333.752 C 273.762 336.264 273.234 338.81 272.845 341.379 C 272.124 345.81 272.019 350.32 272.534 354.78 C 273.055 358.549 273.016 362.374 272.418 366.131 L 272.418 366.158 C 272.276 367.34 272.133 368.549 272 370.007 C 271.922 371.434 272.158 372.86 272.693 374.185 C 272.888 374.763 273.084 375.358 273.244 376.017 C 273.617 377.634 273.84 379.282 273.911 380.941 C 274.364 385.962 275.098 390.953 276.111 395.892 L 276.2 396.363 C 276.724 399.19 277.275 402.123 277.711 405.013 C 278.652 411.652 279.24 418.338 279.47 425.04 C 279.727 430.092 279.596 435.156 279.079 440.188 C 278.191 447.119 277.857 454.111 278.08 461.096 C 278.329 465.313 278.914 469.504 279.83 473.629 C 281.233 480.35 282.063 487.177 282.31 494.039 C 282.443 500.893 282.062 507.748 281.172 514.546 C 280.23 522.396 279.35 529.801 280.612 537.632 C 281.105 540.267 282.335 542.708 284.159 544.672 C 286.027 546.727 288.113 548.571 290.381 550.173 C 291.657 551.005 292.628 552.232 293.145 553.666 C 293.542 554.868 293.344 556.189 292.612 557.222 C 291.464 558.473 289.803 559.122 288.112 558.982 C 287.785 558.982 287.459 558.964 287.134 558.929 C 286.112 558.982 284.316 559.222 283.365 559.373 L 283.356 559.373 C 282.271 559.58 281.171 559.699 280.067 559.729 C 278.046 559.724 276.096 558.981 274.584 557.64 C 273.722 557.098 272.731 556.797 271.713 556.769 C 268.557 556.369 265.828 556.031 266.237 549.551 C 266.421 546.546 266.436 543.534 266.281 540.528 C 265.943 533.345 264.841 523.248 263.171 516.882 C 260.762 507.709 259.518 501.513 259.002 496.153 C 258.599 491.239 258.623 486.3 259.074 481.391 C 259.039 477.48 257.705 474.849 256.292 472.058 C 255.617 470.769 255.003 469.445 254.452 468.085 C 253.125 464.441 252.277 460.64 251.928 456.777 C 251.733 455.212 251.517 453.594 251.217 451.861 C 250.213 446.109 248.152 440.687 245.974 434.945 L 245.965 434.927 C 244.454 430.935 242.889 426.802 241.645 422.446 C 241.421 421.682 241.261 421.059 241.145 420.606 C 240.968 419.886 240.869 419.53 240.781 419.53 C 240.693 419.53 240.604 419.894 240.417 420.614 C 240.301 421.067 240.15 421.68 239.937 422.436 C 238.693 426.791 237.128 430.916 235.617 434.908 L 235.608 434.935 L 235.599 434.953 C 233.413 440.696 231.364 446.118 230.364 451.86 C 230.082 453.46 229.864 455.031 229.664 456.56 C 229.29 460.49 228.437 464.359 227.122 468.081 C 226.589 469.403 225.988 470.697 225.322 471.957 C 224.788 472.997 224.237 474.072 223.766 475.21 C 222.932 477.163 222.503 479.265 222.504 481.388 C 222.961 486.302 222.987 491.246 222.58 496.165 C 221.929 501.672 220.875 507.124 219.425 512.476 C 217.918 518.566 216.385 524.86 216.118 531.331 L 216.118 531.411 L 216.109 531.491 C 215.293 537.478 215.04 543.528 215.353 549.563 C 215.753 556.043 213.033 556.381 209.877 556.781 C 208.86 556.804 207.868 557.102 207.006 557.643 C 205.495 558.987 203.545 559.734 201.523 559.743 C 200.415 559.706 199.312 559.585 198.223 559.379 C 197.796 559.303 197.285 559.25 196.685 559.179 C 194.062 558.877 190.09 558.424 188.739 556.406 C 188.23 555.585 188.12 554.579 188.439 553.668 C 188.962 552.235 189.935 551.01 191.211 550.175 C 193.369 548.673 195.37 546.958 197.184 545.054 C 199.115 542.983 200.427 540.412 200.971 537.632 C 202.233 529.809 201.353 522.396 200.42 514.546 C 199.521 507.749 199.141 500.894 199.282 494.039 C 199.522 487.174 200.349 480.343 201.753 473.62 C 202.67 469.499 203.255 465.31 203.504 461.096 C 203.722 454.113 203.387 447.124 202.504 440.195 C 201.384 430.087 202.315 420.016 203.215 410.265 C 203.642 405.698 204.522 400.951 205.383 396.364 L 205.383 396.337 C 206.207 391.919 207.063 387.351 207.507 382.995 C 207.578 382.346 207.632 381.737 207.685 381.137 C 207.808 378.667 208.247 376.223 208.992 373.865 C 209.492 372.644 209.698 371.323 209.592 370.007 C 209.458 368.522 209.307 367.26 209.174 366.14 C 208.571 362.383 208.532 358.557 209.058 354.789 C 209.567 350.37 209.474 345.902 208.782 341.508 C 208.403 338.944 207.89 336.401 207.244 333.89 C 207.168 333.623 207.097 333.374 207.044 333.134 L 207.035 333.098 C 206.635 331.533 206.448 330.822 206.235 330.822 C 206.049 330.822 205.844 331.382 205.462 332.395 C 205.311 332.815 205.115 333.328 204.885 333.915 C 204.04 336.021 203.232 337.979 202.396 339.879 C 201.011 342.786 199.889 345.812 199.045 348.92 C 197.72 354.751 194.911 360.493 191.898 366.36 L 190.725 368.627 L 190.707 368.663 C 189.037 371.908 187.303 375.259 185.73 378.62 L 185.401 379.331 L 185.392 379.349 C 184.305 381.537 183.384 383.804 182.636 386.131 C 181.786 388.701 181.977 391.501 183.169 393.931 C 185.694 399.802 185.374 402.842 184.956 404.132 C 184.633 405.514 183.432 406.515 182.014 406.585 C 181.692 406.579 181.372 406.528 181.063 406.434 C 180.229 406.15 179.494 405.631 178.947 404.941 C 178.734 404.692 178.556 404.461 178.4 404.27 C 178.009 403.778 177.769 403.478 177.636 403.478 C 177.613 403.478 177.59 403.488 177.574 403.505 C 177.458 403.625 177.458 404.15 177.485 405.306 C 177.503 405.963 177.53 406.586 177.574 407.199 C 177.725 409.399 178.063 411.899 178.525 415.199 C 178.925 418.088 178.425 420.506 177.125 421.999 C 176.358 422.909 175.232 423.438 174.042 423.448 C 172.856 423.427 171.726 422.942 170.895 422.097 C 169.817 420.987 169.11 419.572 168.868 418.044 C 168.017 413.341 167.589 408.571 167.588 403.792 L 167.588 562.639 L 167.17 562.639 Z" style="fill: rgb(216, 216, 216);"/>
    <path style="fill: rgb(216, 216, 216); stroke: rgb(0, 0, 0);" d="M 221.411 274.199"/>
  </g>
</svg>