<?xml version="1.0" encoding="utf-8"?>
<svg viewBox="0 0 146.667 344.002" xmlns="http://www.w3.org/2000/svg">
  <defs>
    <style>.a{fill:#088ecf;}.b{fill:#53bfef;}.c{fill:rgba(176,222,243,0.11);stroke:#088ecf;stroke-width:3px;}</style>
  </defs>
  <g transform="matrix(1, 0, 0, 1, -167.580002, -218.639999)">
    <path class="c" d="M 230.696 406.159 C 227.335 404.635 223.773 403.602 220.118 403.091 C 216.552 402.564 212.951 402.311 209.346 402.335 C 208.493 402.335 208.11 402.246 207.924 402.024 C 207.702 401.757 207.791 401.268 207.951 400.495 C 208.102 399.766 208.235 399.011 208.36 398.273 C 208.44 397.855 208.511 397.437 208.591 397.02 L 208.6 396.967 C 209.436 392.505 210.289 387.891 210.76 383.349 C 210.822 382.7 210.876 382.096 210.929 381.5 C 211.022 379.756 211.272 378.025 211.676 376.327 C 211.756 376.051 211.809 375.802 211.863 375.588 C 212.094 374.637 212.174 374.326 212.556 374.326 C 212.872 374.356 213.183 374.428 213.48 374.539 C 213.64 374.593 213.818 374.646 214.013 374.699 C 217.866 375.791 221.802 376.567 225.781 377.02 C 230.12 377.534 234.487 377.786 238.856 377.776 C 243.878 377.781 248.895 377.466 253.877 376.832 C 258.45 376.274 262.97 375.352 267.396 374.075 C 267.725 373.975 267.996 373.888 268.196 373.817 C 268.403 373.728 268.622 373.668 268.845 373.639 C 269.094 373.639 269.165 373.861 269.345 374.466 C 269.407 374.666 269.478 374.919 269.585 375.23 C 269.754 375.746 269.932 376.298 270.065 376.858 C 270.396 378.273 270.589 379.716 270.643 381.169 C 271.116 386.414 271.884 391.628 272.943 396.787 L 272.987 397.009 C 273.067 397.427 273.147 397.853 273.227 398.253 C 273.405 399.169 273.591 400.111 273.734 401.044 C 273.761 401.222 273.787 401.382 273.814 401.515 C 273.876 401.853 273.914 402.048 273.823 402.164 C 273.69 402.324 273.316 402.324 272.423 402.324 C 263.424 402.333 256.442 403.568 251.064 406.103 C 250.7 406.281 250.415 406.423 250.202 406.539 C 250.043 406.639 249.869 406.714 249.686 406.761 C 249.67 406.763 249.653 406.756 249.642 406.743 C 249.615 406.699 249.66 406.556 249.731 406.307 C 249.802 406.058 249.931 405.694 250.042 405.196 C 250.415 403.528 250.541 401.815 250.415 400.11 C 250.405 399.59 249.976 399.177 249.455 399.186 C 248.849 399.171 248.377 399.707 248.469 400.306 C 248.593 402.079 248.406 403.86 247.918 405.569 C 247.222 408.051 245.649 410.196 243.491 411.605 C 242.739 412.266 241.802 412.679 240.807 412.787 C 239.762 412.653 238.784 412.199 238.007 411.487 C 235.789 410.023 234.227 407.753 233.652 405.158 C 233.232 403.579 233.085 401.941 233.216 400.313 C 233.252 400.023 233.161 399.732 232.967 399.513 C 232.772 399.309 232.502 399.193 232.22 399.193 C 231.702 399.19 231.276 399.6 231.26 400.117 C 231.136 401.846 231.267 403.583 231.651 405.274 C 231.731 405.632 231.831 405.985 231.951 406.332 C 232.022 406.563 232.067 406.714 232.04 406.759 C 232.028 406.77 232.012 406.776 231.996 406.777 C 231.817 406.726 231.647 406.652 231.489 406.555 C 231.297 406.451 231.033 406.319 230.696 406.159 Z"/>
    <path class="c" d="M 249.006 433.635 C 246.688 427.984 244.845 422.15 243.495 416.194 C 243.395 415.687 243.295 415.314 243.228 415.047 C 243.028 414.274 243.028 414.274 243.575 413.971 C 243.762 413.871 244.019 413.731 244.348 413.518 C 245.168 412.938 245.937 412.29 246.648 411.58 C 247.3 410.93 248.002 410.332 248.748 409.793 C 252.217 407.561 256.112 406.075 260.187 405.429 C 264.276 404.706 268.424 404.364 272.577 404.407 L 273.27 404.407 C 274.328 404.407 274.337 404.469 274.434 405.216 C 274.452 405.349 274.47 405.509 274.505 405.687 C 275.446 412.146 276.016 418.655 276.212 425.18 C 276.453 430.05 276.325 434.931 275.83 439.781 C 274.912 446.924 274.57 454.13 274.808 461.329 C 275.072 465.699 275.681 470.042 276.63 474.316 C 277.991 480.853 278.797 487.493 279.038 494.166 C 279.171 500.83 278.799 507.496 277.928 514.104 L 277.928 514.131 C 276.959 522.248 276.052 529.91 277.386 538.203 C 277.982 541.487 279.494 544.535 281.749 546.995 C 283.774 549.233 286.036 551.245 288.496 552.995 C 289.225 553.537 290.052 554.319 289.847 554.951 C 289.696 555.413 289.011 555.671 287.98 555.671 C 287.78 555.671 287.589 555.662 287.38 555.644 C 286.88 555.6 286.464 555.582 286.073 555.582 C 284.998 555.611 283.928 555.731 282.873 555.938 C 282.015 556.099 281.146 556.194 280.273 556.222 C 278.914 556.24 277.596 555.759 276.567 554.871 C 275.265 553.918 273.708 553.376 272.096 553.315 C 270.596 553.128 269.305 552.959 269.496 549.759 C 269.683 546.628 269.7 543.49 269.549 540.358 C 269.069 530.393 268.011 522.402 266.313 515.948 C 263.957 506.979 262.741 500.961 262.252 495.815 C 261.915 492.007 261.886 488.178 262.163 484.365 L 262.181 484.065 C 262.27 482.598 262.27 482.598 262.481 482.589 C 262.623 482.58 262.863 482.571 263.272 482.153 C 263.728 481.683 263.892 481.001 263.699 480.375 C 263.033 478.248 262.194 476.179 261.192 474.188 C 260.748 473.272 260.268 472.388 259.792 471.53 C 258.913 469.997 258.135 468.408 257.463 466.774 C 256.246 463.404 255.473 459.89 255.163 456.32 C 255.03 455.289 254.896 454.284 254.736 453.227 C 254.745 453.165 254.745 453.102 254.736 453.04 C 254.478 450.729 254.318 448.498 254.167 446.524 C 253.923 440.894 253.065 435.308 251.607 429.865 C 251.519 429.439 251.143 429.134 250.707 429.136 C 250.015 429.128 249.518 429.801 249.729 430.46 C 250.005 431.402 250.245 432.353 250.467 433.288 C 250.667 434.195 250.858 435.088 251.027 436.044 C 251.379 437.518 251.602 439.02 251.694 440.533 C 251.694 440.538 251.69 440.542 251.685 440.542 C 251.224 439.682 250.852 438.777 250.574 437.842 C 250.396 437.353 250.192 436.811 249.974 436.224 C 249.681 435.451 249.387 434.677 249.103 433.924 Z M 273.955 478.205 C 274.081 477.89 274.041 477.533 273.848 477.254 C 273.651 476.979 273.333 476.817 272.995 476.818 C 272.582 476.818 272.222 477.096 272.115 477.494 L 272.115 477.503 C 271.603 478.535 270.505 479.14 269.359 479.023 C 268.902 479.03 268.448 478.955 268.017 478.801 L 267.999 478.792 C 267.883 478.746 267.76 478.722 267.635 478.721 C 267.051 478.782 266.63 479.311 266.702 479.894 C 266.74 480.268 266.979 480.591 267.324 480.738 L 267.342 480.747 C 268.911 481.331 270.656 481.204 272.124 480.4 C 272.98 479.922 273.631 479.147 273.955 478.222 Z M 271.119 498.906 C 271.173 496.116 270.816 493.334 270.061 490.648 C 269.962 490.235 269.596 489.943 269.172 489.937 C 268.841 489.944 268.531 490.101 268.328 490.364 C 268.137 490.636 268.091 490.984 268.204 491.297 C 268.9 493.783 269.223 496.359 269.164 498.941 C 269.173 501.529 268.863 504.109 268.24 506.621 C 268.14 506.933 268.197 507.274 268.391 507.537 C 268.592 507.79 268.895 507.94 269.218 507.946 C 269.661 507.944 270.042 507.633 270.134 507.199 C 270.808 504.488 271.139 501.703 271.12 498.909 Z"/>
    <path class="c" d="M 232.376 434.161 C 232.083 434.934 231.776 435.743 231.476 436.534 C 231.298 437.034 231.12 437.485 230.976 437.876 L 230.967 437.912 C 230.764 438.612 230.486 439.288 230.14 439.93 C 230.135 439.93 230.131 439.926 230.131 439.921 C 230.209 438.73 230.382 437.547 230.647 436.383 C 230.995 434.384 231.446 432.405 231.998 430.453 C 232.104 430.143 232.051 429.801 231.856 429.537 C 231.658 429.279 231.354 429.125 231.029 429.119 C 230.595 429.12 230.22 429.424 230.129 429.848 C 228.983 434.134 228.298 438.529 228.085 442.96 C 227.872 445.6 227.649 448.329 227.152 451.227 C 226.885 452.765 226.681 454.311 226.476 455.805 C 226.137 459.539 225.34 463.217 224.103 466.757 C 223.445 468.385 222.672 469.966 221.792 471.486 C 221.321 472.339 220.841 473.228 220.37 474.179 C 219.368 476.174 218.53 478.248 217.864 480.379 C 217.684 480.973 217.821 481.618 218.228 482.086 C 218.452 482.349 218.708 482.582 218.992 482.779 C 219.303 482.979 219.33 483.001 219.392 484.21 C 219.683 488.07 219.66 491.946 219.321 495.802 C 218.664 501.299 217.61 506.742 216.165 512.086 C 214.672 518.186 213.125 524.487 212.849 531.087 C 212.007 537.268 211.745 543.515 212.067 549.746 C 212.267 552.955 210.974 553.115 209.467 553.302 C 207.858 553.364 206.304 553.906 205.005 554.858 C 203.978 555.749 202.659 556.233 201.299 556.218 C 200.421 556.192 199.547 556.094 198.686 555.925 C 198.357 555.872 197.824 555.836 197.21 555.792 C 195.254 555.641 192.303 555.428 192.028 554.459 C 191.922 554.059 192.268 553.57 193.068 552.992 C 195.629 551.167 197.973 549.056 200.055 546.698 C 202.19 544.299 203.617 541.354 204.179 538.191 C 205.52 529.891 204.606 522.218 203.637 514.09 C 202.764 507.482 202.393 500.816 202.526 494.152 C 202.763 487.479 203.569 480.838 204.935 474.302 C 205.884 470.028 206.493 465.685 206.756 461.314 C 206.994 454.119 206.652 446.916 205.734 439.776 C 204.651 429.997 205.565 420.122 206.454 410.566 C 206.596 408.993 206.818 407.393 207.054 405.757 C 207.072 405.641 207.081 405.535 207.09 405.446 C 207.206 404.575 207.241 404.346 208.148 404.346 C 208.406 404.346 208.726 404.364 209.161 404.39 C 209.917 404.434 210.77 404.47 211.677 404.497 C 214.404 404.55 217.126 404.763 219.827 405.137 C 225.276 405.981 229.685 407.546 232.912 409.777 C 233.66 410.319 234.373 410.91 235.044 411.546 C 235.731 412.195 236.459 412.801 237.222 413.359 C 237.462 413.528 237.658 413.652 237.822 413.759 C 238.551 414.23 238.551 414.23 238.329 415.11 C 238.267 415.386 238.178 415.723 238.089 416.186 C 236.742 422.14 234.899 427.971 232.579 433.618 L 232.579 433.627 Z M 213.763 480.797 C 214.257 480.623 214.545 480.11 214.439 479.597 C 214.395 479.13 214.008 478.77 213.539 478.761 C 213.387 478.768 213.238 478.798 213.095 478.85 C 212.677 478.994 212.238 479.069 211.795 479.072 C 210.614 479.128 209.521 478.449 209.048 477.365 C 208.915 477.026 208.585 476.806 208.221 476.814 C 207.886 476.813 207.571 476.976 207.377 477.25 C 207.174 477.583 207.147 477.994 207.306 478.35 C 208.124 480.12 209.947 481.205 211.893 481.079 C 212.527 481.079 213.157 480.984 213.763 480.797 Z M 213.585 491.305 C 213.698 490.992 213.652 490.644 213.461 490.372 C 213.261 490.106 212.949 489.948 212.617 489.945 C 212.197 489.95 211.832 490.237 211.728 490.645 C 210.973 493.334 210.617 496.119 210.67 498.912 C 210.651 501.704 210.983 504.488 211.657 507.197 C 211.746 507.632 212.129 507.945 212.573 507.944 C 212.895 507.941 213.198 507.794 213.4 507.544 C 213.59 507.279 213.645 506.94 213.551 506.628 C 212.928 504.116 212.618 501.536 212.627 498.948 C 212.567 496.364 212.889 493.786 213.585 491.298 Z"/>
    <path class="c" d="M 269.262 316.812 C 269.071 316.523 268.747 316.349 268.4 316.35 C 268.007 316.354 267.66 316.608 267.538 316.981 C 266.794 318.808 265.369 320.274 263.566 321.071 C 261.627 321.916 259.529 322.332 257.415 322.289 C 252.815 322.289 247.869 320.68 245.389 318.368 C 245.22 318.201 244.995 318.103 244.758 318.092 C 244.337 318.118 243.971 318.39 243.825 318.786 C 243.664 319.186 243.771 319.644 244.092 319.933 C 245.773 321.395 247.741 322.491 249.869 323.151 C 252.258 323.954 254.762 324.365 257.282 324.369 C 259.796 324.424 262.288 323.904 264.57 322.849 C 266.744 321.828 268.45 320.02 269.343 317.79 C 269.487 317.472 269.457 317.102 269.262 316.812 Z M 254.552 348.379 C 253.315 348.847 252.008 349.103 250.685 349.135 C 250.396 349.142 250.107 349.118 249.823 349.064 C 249.751 349.046 249.676 349.037 249.601 349.037 C 249.024 349.097 248.606 349.615 248.669 350.193 C 248.72 350.619 249.02 350.973 249.432 351.093 C 249.812 351.172 250.2 351.208 250.588 351.2 C 252.4 351.164 254.185 350.756 255.832 350 C 257.21 349.36 258.881 348.222 259.032 346.47 C 259.067 346.217 258.989 345.961 258.819 345.77 C 258.623 345.568 258.353 345.456 258.072 345.459 C 257.605 345.442 257.194 345.765 257.103 346.223 C 256.925 347.045 256.018 347.81 254.552 348.379 Z M 257.068 336.431 C 256.677 337.987 252.568 339.071 250.49 339.071 C 250.27 339.08 250.049 339.063 249.832 339.018 C 249.757 339 249.679 338.991 249.601 338.991 C 249.023 339.056 248.606 339.577 248.669 340.155 C 248.72 340.581 249.02 340.936 249.432 341.055 C 249.816 341.126 250.206 341.162 250.596 341.162 C 252.408 341.123 254.192 340.714 255.84 339.962 C 257.209 339.331 258.871 338.22 259.031 336.54 C 259.056 336.237 258.953 335.937 258.747 335.713 C 258.57 335.509 258.317 335.387 258.047 335.375 C 257.583 335.374 257.227 335.765 257.067 336.436 Z M 232.07 349.125 C 230.73 349.09 229.405 348.832 228.15 348.361 C 226.63 347.792 225.714 347.044 225.563 346.244 C 225.488 345.78 225.082 345.442 224.612 345.453 C 224.33 345.455 224.061 345.57 223.865 345.773 C 223.677 345.998 223.59 346.291 223.625 346.582 C 223.785 348.263 225.447 349.365 226.816 350.005 C 228.465 350.754 230.249 351.159 232.06 351.196 C 232.45 351.205 232.841 351.169 233.224 351.089 C 234.001 350.871 234.252 349.893 233.674 349.328 C 233.506 349.164 233.288 349.061 233.055 349.036 C 232.98 349.036 232.905 349.045 232.833 349.063 C 232.582 349.11 232.327 349.131 232.073 349.126 Z M 212.24 317.798 C 213.187 320.052 214.953 321.863 217.182 322.866 C 219.545 323.924 222.113 324.446 224.701 324.395 C 229.928 324.395 235.42 322.595 238.389 319.942 C 238.724 319.662 238.839 319.198 238.673 318.795 C 238.535 318.396 238.17 318.12 237.749 318.094 C 237.516 318.101 237.293 318.197 237.127 318.361 C 234.527 320.682 229.368 322.309 224.577 322.309 C 222.381 322.354 220.201 321.935 218.178 321.082 C 216.316 320.302 214.831 318.829 214.036 316.974 C 213.916 316.605 213.572 316.354 213.183 316.352 C 212.833 316.356 212.507 316.533 212.312 316.823 C 212.118 317.114 212.092 317.485 212.243 317.799 Z M 181.833 400.344 C 182.083 401.152 182.036 402.022 181.7 402.797 C 181.628 402.886 181.521 402.941 181.407 402.948 C 180.98 402.948 180.429 402.201 179.914 400.912 C 179.132 398.761 177.87 397.365 176.678 397.365 C 176.105 397.387 175.58 397.694 175.279 398.183 C 174.805 398.953 174.522 399.824 174.452 400.725 C 174.17 402.954 174.12 405.206 174.301 407.446 C 174.461 409.784 174.808 412.346 175.279 415.713 C 175.528 417.513 175.332 418.94 174.746 419.613 C 174.559 419.846 174.28 419.986 173.982 419.995 C 173.282 419.995 172.418 419.177 172.062 417.364 C 171.085 411.854 170.692 406.256 170.889 400.663 C 171.022 394.836 171.726 389.037 172.989 383.347 C 173.889 379.516 174.625 375.783 175.336 372.173 C 176.917 364.226 178.402 356.715 181.379 348.528 C 182.857 345.208 184.519 341.973 186.357 338.838 C 188.713 335.007 189.201 331.211 189.69 327.531 C 189.927 325.027 190.437 322.556 191.209 320.162 L 191.218 320.135 C 191.633 318.273 192.275 316.47 193.129 314.765 C 193.2 314.632 193.262 314.516 193.307 314.409 C 193.671 313.68 193.671 313.68 194.036 313.591 C 194.23 313.546 194.42 313.486 194.605 313.413 C 195.305 313.146 195.751 312.454 195.705 311.706 C 195.703 309.681 195.947 307.663 196.434 305.697 L 196.534 305.208 C 197.103 301.969 198.126 298.827 199.574 295.875 C 200.303 294.475 214.951 285.518 219.058 283.136 C 224.71 279.758 228.017 276.523 228.915 273.527 C 229.194 272.552 229.395 271.556 229.515 270.549 C 229.551 270.282 229.568 270.049 229.586 269.873 C 229.639 269.411 229.23 262.273 229.319 262.273 C 229.381 262.273 228.19 258.956 227.248 258.405 C 226.879 258.197 226.526 257.963 226.19 257.705 C 225.372 257.083 224.999 255.261 224.608 253.332 L 224.608 253.305 C 224.244 251.492 224.546 251.065 224.928 250.523 C 225.278 250.074 225.513 249.546 225.612 248.985 C 225.747 248.204 225.735 247.405 225.576 246.629 C 224.723 240.389 226.118 234.647 229.398 230.895 C 235.064 224.886 244.619 224.886 250.285 230.895 C 253.565 234.647 254.952 240.381 254.107 246.629 C 253.697 248.076 254.012 249.632 254.951 250.807 C 255.191 251.154 255.44 251.5 255.151 252.907 L 255.151 252.916 C 255.098 253.156 255.051 253.423 255 253.698 C 254.7 255.414 254.324 257.547 252.7 258.116 C 251.331 258.587 250.816 258.765 250.327 262.277 C 249.867 265.62 249.988 269.018 250.683 272.321 C 251.356 275.15 253.029 277.641 255.394 279.334 C 257.749 280.987 260.284 282.367 262.95 283.45 C 264.087 283.966 265.162 284.45 266.211 284.979 C 267.402 285.579 268.664 286.143 269.891 286.686 C 274.549 288.757 279.357 290.887 281.952 295.754 C 283.136 298.091 284.023 300.566 284.592 303.123 C 285.371 305.918 285.795 308.8 285.854 311.701 C 285.812 312.462 286.275 313.16 286.992 313.417 C 287.235 313.496 287.485 313.55 287.739 313.577 C 287.979 313.595 287.979 313.595 288.239 314.11 C 288.339 314.297 288.47 314.554 288.666 314.91 C 290.931 319.23 292.258 323.98 292.559 328.849 C 292.843 332.209 293.11 335.373 295.225 338.831 C 297.067 341.964 298.729 345.199 300.203 348.521 C 302.853 355.74 304.806 363.197 306.034 370.788 C 306.514 373.41 307.034 375.945 307.545 378.398 C 309.055 385.714 310.477 392.629 310.691 400.656 C 310.892 406.247 310.499 411.843 309.518 417.35 C 309.407 418.058 309.133 418.73 308.718 419.314 C 308.472 419.702 308.057 419.953 307.599 419.99 C 307.297 419.985 307.013 419.845 306.826 419.608 C 306.239 418.932 306.044 417.508 306.293 415.708 C 306.329 415.45 306.364 415.201 306.4 414.944 L 306.418 414.855 C 306.888 411.873 307.2 408.869 307.351 405.855 C 307.411 404.138 307.334 402.42 307.12 400.716 C 306.836 398.352 306.098 396.947 305.147 396.947 C 304.223 396.947 303.183 398.247 302.231 400.591 C 301.813 401.48 300.72 402.804 300.071 402.804 C 299.961 402.806 299.857 402.757 299.787 402.671 C 299.565 402.404 299.556 401.747 299.76 400.715 C 300.101 398.871 300.647 397.07 301.387 395.346 C 301.76 394.466 302.116 393.506 302.507 392.315 C 303.21 390.442 303.565 388.457 303.556 386.457 C 303.524 386.018 303.331 385.606 303.014 385.301 C 302.623 384.937 302.436 384.91 302.303 384.892 C 302.103 384.874 302.036 384.865 301.619 383.745 C 301.246 382.776 300.828 381.754 300.375 380.687 C 300.259 380.411 298.242 375.816 297.442 374.17 C 296.358 371.97 295.202 369.752 294.091 367.619 C 291.735 363.281 289.602 358.824 287.701 354.268 C 286.688 352.126 286.102 349.807 285.977 347.441 C 285.975 346.477 286.128 345.519 286.43 344.604 C 286.73 343.722 286.292 342.758 285.43 342.404 C 285.232 342.325 285.021 342.28 284.808 342.271 C 284.645 342.266 284.484 342.309 284.346 342.395 C 284.31 342.413 284.284 342.431 284.266 342.439 C 284.219 342.482 284.16 342.509 284.097 342.519 C 283.937 342.519 283.768 342.172 283.097 340.581 C 282.804 339.888 282.497 339.181 282.197 338.501 L 282.161 338.43 C 280.054 333.757 278.199 328.973 276.606 324.101 C 276.233 322.865 275.906 321.657 275.646 320.483 C 275.025 317.895 274.712 315.243 274.713 312.582 C 274.74 312.116 274.572 311.659 274.251 311.32 C 273.939 311.012 273.517 310.839 273.078 310.84 C 272.191 310.82 271.457 311.526 271.442 312.413 C 271.44 312.447 271.443 312.481 271.451 312.513 C 271.453 315.998 271.924 319.466 272.851 322.825 C 273.02 323.492 273.162 324.016 273.278 324.425 C 273.749 326.105 273.749 326.105 273.216 327.425 C 273.038 327.869 272.789 328.483 272.478 329.363 C 271.184 333.092 270.229 336.93 269.625 340.83 C 268.852 345.599 268.745 350.451 269.305 355.249 L 269.305 355.258 C 269.778 358.723 269.739 362.24 269.189 365.694 C 269.047 366.867 268.889 368.194 268.753 369.676 C 268.717 370.049 268.709 370.423 268.709 370.796 C 268.709 371.543 268.709 371.543 267.669 371.845 C 267.5 371.889 267.313 371.945 267.1 372.014 C 262.725 373.288 258.254 374.209 253.732 374.77 C 248.795 375.4 243.822 375.715 238.844 375.713 C 234.597 375.719 230.353 375.475 226.134 374.983 C 222.274 374.55 218.454 373.807 214.713 372.761 L 214.446 372.681 C 212.802 372.21 212.802 372.21 212.855 371.312 C 212.893 370.764 212.887 370.214 212.837 369.667 C 212.704 368.191 212.553 366.92 212.401 365.694 L 212.401 365.685 C 211.856 362.233 211.817 358.721 212.285 355.258 L 212.285 355.237 C 212.847 350.488 212.754 345.684 212.009 340.96 C 211.384 336.748 210.38 332.601 209.009 328.569 C 208.742 327.778 208.52 327.253 208.36 326.862 C 207.916 325.769 207.916 325.769 208.342 324.24 C 208.431 323.94 208.529 323.564 208.653 323.102 C 208.813 322.471 208.964 321.858 209.097 321.271 C 209.779 318.399 210.122 315.457 210.119 312.505 C 210.159 311.621 209.474 310.873 208.59 310.834 C 208.557 310.83 208.523 310.83 208.49 310.834 C 208.049 310.824 207.622 310.994 207.308 311.305 C 206.992 311.647 206.828 312.102 206.855 312.567 C 206.852 315.232 206.539 317.887 205.922 320.479 C 204.859 324.665 203.475 328.764 201.781 332.737 L 201.745 332.826 C 201.025 334.657 200.261 336.479 199.416 338.417 L 199.38 338.479 C 198.953 339.479 198.5 340.506 198.08 341.501 C 197.991 341.714 197.92 341.883 197.88 342.017 C 197.72 342.399 197.68 342.517 197.604 342.517 C 197.56 342.512 197.518 342.497 197.48 342.473 C 197.273 342.358 197.041 342.296 196.804 342.295 L 196.724 342.295 C 196.207 342.297 195.723 342.549 195.424 342.971 C 195.088 343.444 194.996 344.047 195.175 344.598 C 195.744 346.419 195.787 348.364 195.299 350.208 C 193.607 355.222 191.493 360.084 188.98 364.741 C 188.38 365.905 187.753 367.105 187.158 368.261 L 187.158 368.27 C 185.638 371.177 184.065 374.19 182.687 377.222 L 182.456 377.738 C 181.487 379.757 180.626 381.827 179.878 383.938 C 179.549 384.871 179.487 384.88 179.291 384.907 C 179.034 384.943 178.798 385.069 178.624 385.263 C 177.7 386.072 177.94 388.214 178.304 389.876 C 178.784 391.749 179.414 393.581 180.188 395.352 C 180.909 396.955 181.462 398.628 181.836 400.345 Z M 262.708 317.441 C 262.726 316.72 262.158 316.12 261.437 316.099 C 260.407 316.041 259.7 317.119 260.164 318.041 C 260.629 318.962 261.916 319.035 262.481 318.172 C 262.61 317.975 262.685 317.748 262.699 317.512 C 262.706 317.491 262.711 317.468 262.712 317.444 Z M 252.374 282.934 C 252.639 282.63 252.695 282.196 252.516 281.834 C 252.345 281.477 251.995 281.24 251.6 281.212 C 251.314 281.222 251.049 281.363 250.88 281.594 C 249.824 282.653 248.5 283.406 247.05 283.772 C 246.039 284.072 245.076 284.512 244.188 285.079 C 243.309 285.682 242.732 286.634 242.606 287.692 C 242.551 287.99 242.632 288.297 242.828 288.528 C 243.024 288.749 243.305 288.876 243.601 288.875 C 244.1 288.877 244.515 288.493 244.552 287.995 C 244.703 286.895 246.196 286.295 247.921 285.604 C 249.52 284.953 251.343 284.225 252.374 282.934 Z M 242.339 353.453 L 242.321 334.136 C 242.356 333.607 241.96 333.148 241.432 333.105 L 241.343 333.105 L 241.343 333.114 C 240.813 333.094 240.37 333.516 240.365 334.047 L 240.365 334.136 L 240.383 353.453 C 240.383 354.206 241.198 354.676 241.85 354.3 C 242.153 354.125 242.339 353.802 242.339 353.453 Z M 241.77 313.3 C 241.779 313.265 241.779 313.228 241.77 313.193 L 241.77 302.475 C 241.804 301.948 241.408 301.492 240.881 301.453 L 240.796 301.453 C 240.265 301.436 239.822 301.855 239.809 302.386 L 239.809 313.195 C 239.743 313.95 240.518 314.493 241.205 314.173 C 241.545 314.015 241.765 313.677 241.773 313.302 Z M 243.023 362.396 C 243.023 361.756 242.294 361.223 241.387 361.223 C 240.48 361.223 239.76 361.756 239.76 362.396 C 239.76 363.036 240.489 363.578 241.387 363.578 C 242.285 363.578 243.024 363.046 243.024 362.397 Z M 238.463 288.526 C 238.658 288.294 238.739 287.988 238.685 287.69 C 238.563 286.633 237.989 285.68 237.112 285.077 C 236.224 284.51 235.261 284.07 234.251 283.77 C 232.799 283.407 231.474 282.654 230.42 281.592 C 230.251 281.361 229.986 281.22 229.7 281.21 C 229.3 281.229 228.944 281.469 228.776 281.832 C 228.607 282.196 228.662 282.624 228.918 282.932 C 229.949 284.221 231.771 284.95 233.371 285.599 C 235.094 286.292 236.588 286.888 236.739 287.99 C 236.774 288.487 237.192 288.87 237.69 288.861 C 237.985 288.871 238.269 288.748 238.464 288.527 Z M 233.228 341.053 C 233.789 340.897 234.116 340.314 233.957 339.753 C 233.837 339.341 233.483 339.04 233.057 338.989 C 232.982 338.989 232.907 338.998 232.835 339.016 C 232.55 339.069 232.262 339.096 231.973 339.096 C 230.65 339.061 229.343 338.803 228.106 338.332 C 226.648 337.772 225.742 337.008 225.555 336.19 C 225.476 335.737 225.082 335.407 224.622 335.408 C 224.015 335.403 223.544 335.935 223.622 336.537 C 223.746 337.844 224.875 339.061 226.804 339.95 C 228.452 340.705 230.236 341.117 232.048 341.159 C 232.444 341.165 232.84 341.129 233.229 341.054 Z M 222.357 317.443 C 222.376 316.725 221.813 316.126 221.095 316.101 L 221.086 316.101 C 220.057 316.043 219.35 317.121 219.814 318.043 C 220.278 318.964 221.566 319.037 222.131 318.174 C 222.26 317.977 222.335 317.75 222.348 317.514 C 222.355 317.492 222.359 317.468 222.358 317.444 Z"/>
  </g>
</svg>